<svg width="1116" height="466" viewBox="0 0 1116 466" fill="none" xmlns="http://www.w3.org/2000/svg">
<g filter="url(#filter0_d)">
<rect x="8" y="2" width="1100" height="450" rx="16" fill="white"/>
<rect x="60.5" y="102.5" width="249" height="249" rx="7.5" fill="white"/>
<path d="M242.931 133.759H127.069C125.927 133.759 125 134.56 125 135.552V214.448C125 215.44 125.927 216.241 127.069 216.241H242.931C244.073 216.241 245 215.44 245 214.448V135.552C245 134.56 244.073 133.759 242.931 133.759ZM240.862 212.655H129.138V137.345H240.862V212.655Z" fill="#C4C4C4"/>
<path d="M158.103 173.454C164.457 173.454 169.626 168.975 169.626 163.47C169.626 157.962 164.457 153.483 158.103 153.483C151.75 153.483 146.581 157.962 146.581 163.469C146.581 168.975 151.75 173.454 158.103 173.454ZM158.103 157.069C162.175 157.069 165.488 159.942 165.488 163.469C165.488 166.996 162.175 169.868 158.103 169.868C154.032 169.868 150.719 166.997 150.719 163.47C150.719 159.943 154.032 157.069 158.103 157.069Z" fill="#C4C4C4"/>
<path d="M139.483 205.483C139.967 205.483 140.455 205.336 140.848 205.036L174.599 179.284L195.914 197.754C196.723 198.456 198.03 198.456 198.839 197.754C199.648 197.053 199.648 195.92 198.839 195.219L188.894 186.6L207.889 168.572L231.188 187.082C232.03 187.751 233.339 187.701 234.111 186.971C234.883 186.241 234.827 185.106 233.983 184.437L209.155 164.713C208.75 164.392 208.21 164.232 207.666 164.243C207.117 164.265 206.6 164.474 206.23 164.826L185.966 184.061L176.153 175.556C175.379 174.887 174.142 174.853 173.323 175.477L138.115 202.343C137.257 202.998 137.174 204.131 137.929 204.875C138.339 205.278 138.91 205.483 139.483 205.483Z" fill="#C4C4C4"/>
<rect x="85" y="244" width="162" height="17" fill="black"/>
<rect x="85" y="269" width="150" height="7" fill="#C4C4C4"/>
<rect x="85" y="276" width="150" height="7" fill="#C4C4C4"/>
<rect x="85" y="291" width="109" height="7" fill="#C4C4C4"/>
<rect x="60.5" y="102.5" width="249" height="249" rx="7.5" stroke="#BDBDBD"/>
<rect x="435.5" y="102.5" width="249" height="249" rx="7.5" fill="white"/>
<path d="M617.931 133.759H502.069C500.927 133.759 500 134.56 500 135.552V214.448C500 215.44 500.927 216.241 502.069 216.241H617.931C619.073 216.241 620 215.44 620 214.448V135.552C620 134.56 619.073 133.759 617.931 133.759ZM615.862 212.655H504.138V137.345H615.862V212.655Z" fill="#C4C4C4"/>
<path d="M533.103 173.454C539.457 173.454 544.626 168.975 544.626 163.47C544.626 157.962 539.457 153.483 533.103 153.483C526.75 153.483 521.581 157.962 521.581 163.469C521.581 168.975 526.75 173.454 533.103 173.454ZM533.103 157.069C537.175 157.069 540.488 159.942 540.488 163.469C540.488 166.996 537.175 169.868 533.103 169.868C529.032 169.868 525.719 166.997 525.719 163.47C525.719 159.943 529.032 157.069 533.103 157.069Z" fill="#C4C4C4"/>
<path d="M514.483 205.483C514.967 205.483 515.455 205.336 515.848 205.036L549.599 179.284L570.914 197.754C571.723 198.456 573.03 198.456 573.839 197.754C574.648 197.053 574.648 195.92 573.839 195.219L563.894 186.6L582.889 168.572L606.188 187.082C607.03 187.751 608.339 187.701 609.111 186.971C609.883 186.241 609.827 185.106 608.983 184.437L584.155 164.713C583.75 164.392 583.21 164.232 582.666 164.243C582.117 164.265 581.6 164.474 581.23 164.826L560.966 184.061L551.153 175.556C550.379 174.887 549.142 174.853 548.323 175.477L513.115 202.343C512.257 202.998 512.174 204.131 512.929 204.875C513.339 205.278 513.91 205.483 514.483 205.483Z" fill="#C4C4C4"/>
<rect x="460" y="244" width="162" height="17" fill="black"/>
<rect x="460" y="269" width="150" height="7" fill="#C4C4C4"/>
<rect x="460" y="276" width="150" height="7" fill="#C4C4C4"/>
<rect x="460" y="291" width="109" height="7" fill="#C4C4C4"/>
<rect x="435.5" y="102.5" width="249" height="249" rx="7.5" stroke="#BDBDBD"/>
<rect x="810.5" y="105.5" width="249" height="249" rx="7.5" fill="white"/>
<path d="M992.931 136.759H877.069C875.927 136.759 875 137.56 875 138.552V217.448C875 218.44 875.927 219.241 877.069 219.241H992.931C994.073 219.241 995 218.44 995 217.448V138.552C995 137.56 994.073 136.759 992.931 136.759ZM990.862 215.655H879.138V140.345H990.862V215.655Z" fill="#C4C4C4"/>
<path d="M908.103 176.454C914.457 176.454 919.626 171.975 919.626 166.47C919.626 160.962 914.457 156.483 908.103 156.483C901.75 156.483 896.581 160.962 896.581 166.469C896.581 171.975 901.75 176.454 908.103 176.454ZM908.103 160.069C912.175 160.069 915.488 162.942 915.488 166.469C915.488 169.996 912.175 172.868 908.103 172.868C904.032 172.868 900.719 169.997 900.719 166.47C900.719 162.943 904.032 160.069 908.103 160.069Z" fill="#C4C4C4"/>
<path d="M889.483 208.483C889.967 208.483 890.455 208.336 890.848 208.036L924.599 182.284L945.914 200.754C946.723 201.456 948.03 201.456 948.839 200.754C949.648 200.053 949.648 198.92 948.839 198.219L938.894 189.6L957.889 171.572L981.188 190.082C982.03 190.751 983.339 190.701 984.111 189.971C984.883 189.241 984.827 188.106 983.983 187.437L959.155 167.713C958.75 167.392 958.21 167.232 957.666 167.243C957.117 167.265 956.6 167.474 956.23 167.826L935.966 187.061L926.153 178.556C925.379 177.887 924.142 177.853 923.323 178.477L888.115 205.343C887.257 205.998 887.174 207.131 887.929 207.875C888.339 208.278 888.91 208.483 889.483 208.483Z" fill="#C4C4C4"/>
<rect x="835" y="247" width="162" height="17" fill="black"/>
<rect x="835" y="272" width="150" height="7" fill="#C4C4C4"/>
<rect x="835" y="279" width="150" height="7" fill="#C4C4C4"/>
<rect x="835" y="294" width="109" height="7" fill="#C4C4C4"/>
<rect x="810.5" y="105.5" width="249" height="249" rx="7.5" stroke="#BDBDBD"/>
</g>
<defs>
<filter id="filter0_d" x="0" y="0" width="1116" height="466" filterUnits="userSpaceOnUse" color-interpolation-filters="sRGB">
<feFlood flood-opacity="0" result="BackgroundImageFix"/>
<feColorMatrix in="SourceAlpha" type="matrix" values="0 0 0 0 0 0 0 0 0 0 0 0 0 0 0 0 0 0 127 0"/>
<feOffset dy="6"/>
<feGaussianBlur stdDeviation="4"/>
<feColorMatrix type="matrix" values="0 0 0 0 0 0 0 0 0 0 0 0 0 0 0 0 0 0 0.25 0"/>
<feBlend mode="normal" in2="BackgroundImageFix" result="effect1_dropShadow"/>
<feBlend mode="normal" in="SourceGraphic" in2="effect1_dropShadow" result="shape"/>
</filter>
</defs>
</svg>
